<svg xmlns="http://www.w3.org/2000/svg" width="54.188" height="53.549" viewBox="0 0 54.188 53.549">
  <path id="ico_moon-2" d="M764.632-34a27.683,27.683,0,0,1-9.419-1.637,27.38,27.38,0,0,1-8-4.523,27.117,27.117,0,0,1-6-6.827,26.448,26.448,0,0,1-3.4-8.548,22.719,22.719,0,0,0,13.3,4.25,22.482,22.482,0,0,0,22.638-22.271,22.1,22.1,0,0,0-5.026-13.994A27.486,27.486,0,0,1,785.3-78.57a26.744,26.744,0,0,1,4.912,8.064A26.432,26.432,0,0,1,792-60.925a26.382,26.382,0,0,1-2.151,10.48,26.816,26.816,0,0,1-5.865,8.558,27.307,27.307,0,0,1-8.7,5.77A27.585,27.585,0,0,1,764.632-34Z" transform="translate(-737.812 87.549)" fill="#fff3a7"/>
</svg>
