<svg xmlns="http://www.w3.org/2000/svg" width="67.896" height="66.57" viewBox="0 0 67.896 66.57">
  <path id="icon_Star-03" d="M23.377,2.672a3,3,0,0,1,4.563,0L35.7,11.758a3,3,0,0,0,1.167.837l11.1,4.441a3,3,0,0,1,1.422,4.388L43.081,31.41a3,3,0,0,0-.456,1.386L41.772,44.57a3,3,0,0,1-3.7,2.7L26.37,44.41a3,3,0,0,0-1.423,0l-11.7,2.857a3,3,0,0,1-3.7-2.7L8.691,32.8a3,3,0,0,0-.456-1.386L1.926,21.425a3,3,0,0,1,1.422-4.388l11.1-4.441a3,3,0,0,0,1.167-.837Z" transform="matrix(0.883, 0.469, -0.469, 0.883, 22.586, 0)" fill="#fff3a7"/>
</svg>
