<svg xmlns="http://www.w3.org/2000/svg" width="16.513" height="27.201" viewBox="0 0 16.513 27.201">
  <g id="icon_book-01" transform="translate(-1789.744 -1012.663)">
    <g id="路径_4" data-name="路径 4" transform="translate(1789.744 1014.341)" fill="#fff" stroke-linejoin="round">
      <path d="M 16.01269721984863 24.90304565429688 L 0.4999976456165314 21.54446029663086 L 0.4999976456165314 0.6198431253433228 L 16.01269721984863 3.978427648544312 L 16.01269721984863 24.90304565429688 Z" stroke="none"/>
      <path d="M 0.9999980926513672 1.239681243896484 L 0.9999980926513672 21.14112663269043 L 15.51269721984863 24.28320693969727 L 15.51269721984863 4.38176155090332 L 0.9999980926513672 1.239681243896484 M -1.9073486328125e-06 3.814697265625e-06 L 16.51269721984863 3.575094223022461 L 16.51269721984863 25.52288436889648 L -1.9073486328125e-06 21.94779396057129 L -1.9073486328125e-06 3.814697265625e-06 Z" stroke="none" fill="#fff"/>
    </g>
    <g id="路径_5" data-name="路径 5" transform="translate(1789.744 1015.169)" fill="none">
      <path d="M0-.978,13.37-2.506V19.442L0,20.97Z" stroke="none"/>
      <path d="M 12.36955642700195 -1.385087966918945 L 0.9999971389770508 -0.08589744567871094 L 0.9999971389770508 19.84888648986816 L 12.36955642700195 18.54969596862793 L 12.36955642700195 -1.385087966918945 M 13.36955642700195 -2.505861282348633 L 13.36955642700195 19.44192886352539 L -2.86102294921875e-06 20.96965980529785 L -2.86102294921875e-06 -0.9781303405761719 L 13.36955642700195 -2.505861282348633 Z" stroke="none" fill="#fff"/>
    </g>
  </g>
</svg>
