<svg xmlns="http://www.w3.org/2000/svg" width="29.223" height="28.434" viewBox="0 0 29.223 28.434">
  <path id="icon_Star-02" d="M9.148,2.672a3,3,0,0,1,4.563,0l1.924,2.254a3,3,0,0,0,1.167.837l2.708,1.083a3,3,0,0,1,1.422,4.388l-1.52,2.405a3,3,0,0,0-.456,1.386l-.208,2.866a3,3,0,0,1-3.7,2.7l-2.9-.709a3,3,0,0,0-1.423,0l-2.9.709a3,3,0,0,1-3.7-2.7L3.9,15.025a3,3,0,0,0-.456-1.386l-1.52-2.405A3,3,0,0,1,3.348,6.847L6.057,5.763a3,3,0,0,0,1.167-.837Z" transform="translate(0 8.563) rotate(-22)" fill="#fff3a7"/>
</svg>
