<svg xmlns="http://www.w3.org/2000/svg" width="792.297" height="424" viewBox="0 0 792.297 424">
  <path id="kumo-02" d="M234.821,377.474a181.723,181.723,0,0,1-48.3,6.5C83.51,383.972,0,298.017,0,191.986S83.51,0,186.523,0c65.566,0,123.23,34.82,156.491,87.475a225.88,225.88,0,0,1,25.954-1.489,217.182,217.182,0,0,1,95.1,21.5c21.945-32.288,58.2-53.378,99.207-53.378,52.14,0,96.6,34.1,113.726,81.951,44.746-4.4,84.644,10.028,103.9,42.053C811.492,229,778.37,305.031,706.921,347.939c-64.588,38.788-138.389,37.227-174.561-1.019C497.654,393.317,437.441,424,368.968,424,316.974,424,269.74,406.305,234.821,377.474Z" fill="#fff"/>
</svg>
