<svg xmlns="http://www.w3.org/2000/svg" width="670" height="269" viewBox="0 0 670 269">
  <path id="kumo-01" d="M283.791,228.545c-8.219.783-16.646,1.189-25.22,1.189-38.449,0-73.8-8.163-101.738-21.828a159.161,159.161,0,0,1-49.949,7.763C47.854,215.669,0,185.626,0,148.566s47.854-67.1,106.884-67.1q3.589,0,7.118.146c27.525-31.817,81.94-53.478,144.569-53.478a262.972,262.972,0,0,1,36.559,2.523A147.817,147.817,0,0,1,385.953,0c43.44,0,82.351,18.241,108.56,47.031q9.255-.725,18.822-.733C599.859,46.3,670,92.216,670,148.858s-70.141,102.56-156.665,102.56a233.355,233.355,0,0,1-48.189-4.943A148.614,148.614,0,0,1,385.953,269C345.923,269,309.734,253.506,283.791,228.545Z" fill="#fff"/>
</svg>
