<svg id="marker" xmlns="http://www.w3.org/2000/svg" width="19.869" height="23.714" viewBox="0 0 19.869 23.714">
  <path id="路径_6" data-name="路径 6" d="M11.952,6A3.952,3.952,0,1,0,15.9,9.952,3.952,3.952,0,0,0,11.952,6Zm0,5.928a1.976,1.976,0,1,1,1.976-1.976A1.976,1.976,0,0,1,11.952,11.928Z" transform="translate(-2.018 -0.07)" fill="#fff"/>
  <path id="路径_7" data-name="路径 7" d="M11.879,23.712A5.208,5.208,0,0,1,7.62,21.538c-3.765-5.194-5.675-9.1-5.675-11.606a9.934,9.934,0,0,1,19.869,0c0,2.508-1.91,6.412-5.675,11.606a5.208,5.208,0,0,1-4.259,2.174Zm0-21.557A7.788,7.788,0,0,0,4.1,9.934c0,1.986,1.87,5.658,5.265,10.34a3.107,3.107,0,0,0,5.029,0c3.395-4.682,5.265-8.354,5.265-10.34a7.788,7.788,0,0,0-7.779-7.779Z" transform="translate(-1.945 0.002)" fill="#fff"/>
</svg>
